<?xml version="1.0" standalone="no"?>
<!DOCTYPE svg PUBLIC "-//W3C//DTD SVG 20010904//EN"
 "http://www.w3.org/TR/2001/REC-SVG-20010904/DTD/svg10.dtd">
<svg version="1.0" xmlns="http://www.w3.org/2000/svg"
 width="512.000000pt" height="512.000000pt" viewBox="0 0 512.000000 512.000000"
 preserveAspectRatio="xMidYMid meet">

<g transform="translate(0.000000,512.000000) scale(0.100000,-0.100000)"
fill="#a5a5a5" stroke="none">
<path d="M2330 5110 c-494 -48 -950 -230 -1350 -538 -195 -150 -448 -432 -594
-662 -63 -99 -186 -351 -230 -471 -49 -134 -102 -340 -128 -499 -31 -195 -31
-565 0 -760 45 -276 116 -498 237 -745 132 -269 269 -460 489 -681 221 -220
412 -357 681 -489 247 -121 469 -192 745 -237 195 -31 565 -31 760 0 276 45
498 116 745 237 269 132 460 269 681 489 220 221 357 412 489 681 88 179 132
296 180 476 63 240 78 371 78 649 0 278 -15 409 -78 649 -48 180 -92 297 -180
476 -132 269 -269 460 -489 681 -221 220 -412 357 -681 489 -246 121 -474 193
-740 235 -147 23 -475 34 -615 20z m536 -425 c354 -50 695 -193 987 -413 l88
-67 -33 -28 c-275 -235 -522 -397 -853 -558 -99 -48 -189 -89 -199 -91 -16 -2
-39 30 -120 173 -175 304 -400 655 -564 877 -30 41 -50 78 -46 82 8 8 159 32
269 44 73 8 368 -4 471 -19z m-1114 -230 c144 -192 393 -568 545 -825 120
-204 146 -251 140 -256 -10 -10 -271 -85 -432 -123 -284 -69 -607 -123 -925
-156 -163 -17 -597 -41 -605 -34 -7 8 52 202 91 296 167 404 431 732 785 976
107 74 341 200 350 189 3 -4 26 -34 51 -67z m2605 -723 c125 -188 229 -428
288 -661 41 -165 74 -441 52 -441 -5 0 -62 9 -126 19 -255 43 -301 46 -636 46
-327 -1 -414 -8 -642 -51 -27 -5 -29 -2 -72 98 -25 57 -77 172 -118 257 -40
85 -72 155 -71 156 2 0 37 16 78 34 374 167 788 429 1055 668 l60 54 28 -33
c16 -18 62 -84 104 -146z m-1666 -834 c60 -119 170 -360 167 -363 -2 -1 -43
-16 -92 -34 -473 -169 -926 -438 -1321 -786 -130 -115 -339 -326 -439 -442
-43 -51 -82 -93 -85 -93 -11 0 -134 166 -189 255 -199 322 -299 658 -318 1068
l-7 147 114 0 c246 0 703 39 1009 86 327 50 777 155 1000 233 47 16 91 30 97
30 7 1 36 -45 64 -101z m1400 -608 c208 -11 564 -61 585 -83 3 -2 -5 -49 -17
-103 -101 -469 -378 -915 -757 -1218 -40 -32 -74 -57 -76 -55 -1 2 -19 85 -40
184 -69 329 -180 721 -301 1061 -30 86 -55 162 -55 169 0 17 195 40 460 53 14
1 104 -3 201 -8z m-1071 -143 c0 -2 27 -77 60 -168 152 -412 282 -895 363
-1345 l6 -32 -93 -36 c-583 -231 -1221 -200 -1778 85 -93 48 -271 162 -332
211 l-28 24 67 79 c390 460 878 833 1380 1055 169 75 355 141 355 127z"/>
</g>
</svg>
