<?xml version="1.0" standalone="no"?>
<!DOCTYPE svg PUBLIC "-//W3C//DTD SVG 20010904//EN"
 "http://www.w3.org/TR/2001/REC-SVG-20010904/DTD/svg10.dtd">
<svg version="1.0" xmlns="http://www.w3.org/2000/svg"
 width="512.000000pt" height="512.000000pt" viewBox="0 0 512.000000 512.000000"
 preserveAspectRatio="xMidYMid meet">

<g transform="translate(0.000000,512.000000) scale(0.100000,-0.100000)"
fill="#a5a5a5" stroke="none">
<path d="M4675 4914 c-497 -158 -1113 -370 -1740 -599 -516 -188 -2786 -1040
-2823 -1059 -64 -33 -112 -112 -112 -184 0 -51 42 -132 84 -160 19 -13 160
-61 318 -108 155 -47 473 -143 704 -215 232 -71 435 -129 452 -129 31 0 66 22
1182 725 946 596 1061 666 1083 663 16 -2 22 -10 22 -29 0 -22 -147 -161 -895
-847 -577 -529 -902 -833 -913 -856 -15 -28 -17 -43 -9 -65 5 -15 120 -196
254 -402 273 -418 590 -911 782 -1217 108 -171 134 -206 170 -227 82 -48 201
-26 262 48 16 20 48 85 71 144 23 59 160 409 303 778 631 1617 860 2236 1131
3050 102 307 113 347 113 415 1 65 -3 82 -29 128 -16 30 -51 73 -77 97 -88 79
-191 94 -333 49z"/>
<path d="M1514 2115 c-17 -9 -39 -31 -49 -49 -17 -31 -17 -67 -6 -662 8 -385
16 -643 23 -666 33 -112 172 -180 271 -133 38 18 431 382 467 433 20 28 25 46
25 96 l0 62 -156 239 c-302 464 -427 650 -447 668 -28 26 -90 31 -128 12z"/>
</g>
</svg>
